<svg width="33" height="32" viewBox="0 0 33 32" fill="none" xmlns="http://www.w3.org/2000/svg">
<path d="M32.25 3.42857V28.5714C32.25 30.4643 30.7143 32 28.8214 32H22.7286V19.3429H27.0571L27.6786 14.5143H22.7286V11.4286C22.7286 10.0286 23.1143 9.07857 25.1214 9.07857H27.6786V4.76429C27.2357 4.70714 25.7214 4.57143 23.95 4.57143C20.2643 4.57143 17.7357 6.82143 17.7357 10.9571V14.5214H13.3929V19.35H17.7429V32H3.67857C1.78571 32 0.25 30.4643 0.25 28.5714V3.42857C0.25 1.53571 1.78571 0 3.67857 0H28.8214C30.7143 0 32.25 1.53571 32.25 3.42857Z" fill="#BEBEBE"/>
</svg>
